<svg version="1.1" id="Layer_1" xmlns="http://www.w3.org/2000/svg" xmlns:xlink="http://www.w3.org/1999/xlink" x="0px" y="0px"
	 width="100%" viewBox="0 0 724 166" enable-background="new 0 0 724 166" xml:space="preserve">
<path fill="#000000" opacity="1.000000" stroke="none" 
	d="
M530.000000,167.000000 
	C353.382782,167.000000 177.265564,167.000000 1.074169,167.000000 
	C1.074169,111.731728 1.074169,56.463329 1.074169,1.097466 
	C242.333313,1.097466 483.666656,1.097466 724.972412,1.097466 
	C724.972412,56.401150 724.972412,111.700584 724.972412,167.000000 
	C660.129944,167.000000 595.314941,167.000000 530.000000,167.000000 
M378.321106,39.532509 
	C378.540314,45.039314 378.759521,50.546116 379.061951,57.037403 
	C379.193909,57.683395 379.325867,58.329391 378.575745,58.642307 
	C378.056549,57.208874 377.160461,55.795490 377.082947,54.338558 
	C376.733093,47.762852 376.816589,47.758408 369.025635,48.058300 
	C353.371765,48.109581 337.717926,48.160862 321.302460,48.080208 
	C317.310455,48.633945 315.625885,50.927856 315.992004,54.917488 
	C316.143646,56.569530 316.259430,58.286720 315.983673,59.904770 
	C315.077026,65.224266 318.311127,66.525558 322.536438,66.892006 
	C324.191284,67.035522 325.865601,66.972679 327.531067,66.972031 
	C345.686493,66.965012 363.843170,67.063141 381.996460,66.860100 
	C386.421478,66.810600 388.246613,67.919083 388.129547,72.722458 
	C387.829346,85.040894 387.887909,97.374115 388.109924,109.695900 
	C388.186157,113.925629 386.657623,115.134270 382.579865,115.080177 
	C368.424561,114.892448 354.264191,115.105843 340.107758,114.966202 
	C336.667114,114.932266 332.879913,115.400246 332.444305,118.791557 
	C331.893829,123.076935 333.165192,127.606270 333.777802,132.012711 
	C333.828247,132.375412 334.824005,132.767319 335.426117,132.865189 
	C338.186554,133.313934 340.968384,134.027237 343.733215,133.988144 
	C361.002930,133.744003 378.274811,133.466949 395.536255,132.903244 
	C404.578644,132.607925 410.888611,125.934311 410.951263,116.851852 
	C411.067291,100.030022 410.904694,83.206398 410.973480,66.383995 
	C410.986481,63.203358 409.893127,61.756882 406.607452,61.973385 
	C400.335785,62.386646 394.032867,63.110271 387.788452,62.797073 
	C384.974945,62.655960 382.270721,60.335098 380.422668,59.320152 
	C382.312439,59.835636 384.176880,60.489758 386.096741,60.840492 
	C391.767120,61.876389 395.967743,58.401829 395.992401,52.741112 
	C396.011139,48.443985 395.994812,44.146660 395.983643,39.849453 
	C395.973846,36.068974 394.137115,34.035789 390.290924,33.992725 
	C388.142944,33.968674 385.968170,33.789871 383.852509,34.055454 
	C381.087799,34.402515 378.672760,35.420906 378.321106,39.532509 
M501.042664,77.948372 
	C501.218903,88.396919 501.395172,98.845467 501.448639,110.010330 
	C501.155029,111.596695 500.861450,113.183060 500.588226,114.659355 
	C493.285370,115.698128 493.035492,115.989586 493.033722,123.172295 
	C493.033356,124.671089 493.103485,126.172493 493.037384,127.668114 
	C492.909302,130.563446 493.941284,132.722351 497.043640,132.883896 
	C501.233704,133.102081 505.455933,133.177490 509.640686,132.923676 
	C518.631409,132.378403 523.946045,126.750206 523.986023,117.834808 
	C524.052490,103.013641 524.041931,88.191887 523.997986,73.370575 
	C523.974060,65.300667 519.732117,59.422398 511.863312,58.167191 
	C506.444427,57.302784 500.769531,57.828743 495.222412,58.056992 
	C491.425537,58.213219 489.589844,57.088512 489.975311,52.991093 
	C490.239197,50.186172 489.796936,47.316845 490.033478,44.506874 
	C490.443359,39.637009 487.991760,37.809914 483.553986,38.005585 
	C480.279724,38.149960 476.976593,38.980743 473.757080,38.698433 
	C469.340393,38.311146 467.119507,39.830975 467.050476,44.427574 
	C466.988983,48.522682 467.037537,52.619438 467.037537,56.624214 
	C459.404541,57.387165 458.471466,58.151909 458.015259,63.468700 
	C457.218170,72.758118 458.207977,74.279625 466.729340,76.807091 
	C466.729340,89.379616 466.729340,101.963356 466.729340,114.423988 
	C466.122894,114.673790 465.818817,114.785606 465.526093,114.921753 
	C463.159424,116.022377 458.943909,116.896042 458.771545,118.274117 
	C458.221619,122.670883 459.117676,127.261971 459.633484,131.757568 
	C459.684692,132.204025 460.964478,132.847931 461.658356,132.828842 
	C467.310974,132.673447 473.114990,133.112503 478.571991,131.953506 
	C485.982239,130.379669 489.853790,124.696373 489.960388,117.227615 
	C490.055420,110.567467 490.000824,103.905128 490.005310,97.243752 
	C490.010010,90.306183 490.006378,83.368614 490.006378,75.478500 
	C494.231079,76.062691 497.702393,76.542702 501.042664,77.948372 
M652.029968,68.194931 
	C651.972107,67.456764 651.914185,66.718597 651.968445,65.052353 
	C651.926636,58.375546 651.884888,51.698738 651.950012,44.257378 
	C652.481995,40.406815 649.854980,39.165070 646.495728,38.086166 
	C646.495728,38.086166 646.060242,38.136272 645.213501,37.997730 
	C643.786865,38.033482 642.360168,38.069233 640.010376,38.022636 
	C631.031738,38.052441 622.053162,38.082245 612.249084,37.991982 
	C609.973083,38.059826 607.691528,38.260677 605.422424,38.164989 
	C601.834167,38.013680 599.912537,39.990639 600.112488,43.179302 
	C600.383179,47.496555 597.904480,52.681835 603.244019,55.754292 
	C603.628967,55.975807 604.225525,55.826298 604.723389,55.855373 
	C610.818481,56.211254 616.921753,56.938477 623.005737,56.802258 
	C627.486450,56.701939 628.790039,58.773880 628.949890,62.581490 
	C629.153809,67.438156 627.714417,68.828819 622.844666,68.996674 
	C608.755737,69.482330 601.277100,73.286339 600.528809,86.531425 
	C600.582581,86.771095 600.636292,87.010765 600.454773,87.688499 
	C600.394104,88.026558 600.437500,88.350639 600.183167,89.435448 
	C600.182617,97.278580 600.182068,105.121712 600.064270,113.789169 
	C600.382019,115.560577 600.837952,117.319939 600.993469,119.105476 
	C601.642273,126.553101 606.330200,132.247147 613.588806,132.808289 
	C621.087036,133.387955 628.699341,133.436234 636.195923,132.860291 
	C646.382812,132.077652 651.787476,125.475990 651.957520,114.049278 
	C651.920593,105.707329 651.883728,97.365387 652.256348,88.315681 
	C654.935242,87.855072 657.602905,87.307945 660.295959,86.955803 
	C663.652954,86.516830 665.150757,87.932007 665.055725,91.482521 
	C664.886230,97.810272 665.245178,104.157700 664.907715,110.471466 
	C664.824402,112.029663 663.054749,114.639427 661.817383,114.791748 
	C657.083923,115.374397 655.509766,117.729965 655.995728,122.177582 
	C656.193665,123.989243 656.100525,125.843628 656.015503,127.672791 
	C655.879517,130.598572 656.979065,132.687836 660.049927,132.868607 
	C664.082642,133.105972 668.179138,133.376328 672.173035,132.941772 
	C682.826782,131.782593 687.979553,125.807152 687.996338,115.159821 
	C688.007446,108.160461 687.994690,101.161072 687.998718,94.161697 
	C688.000732,90.585938 686.989197,86.343224 692.997803,86.757484 
	C693.496216,86.791847 694.491821,86.068825 694.507263,85.668732 
	C694.686401,81.037941 695.269104,76.308540 694.506348,71.815536 
	C694.227539,70.173233 690.662720,69.088783 688.240417,67.518753 
	C687.073730,54.861767 687.073730,54.861797 673.095703,54.975773 
	C672.762390,54.978493 672.429077,54.973984 672.095825,54.980389 
	C666.112122,55.095409 665.071350,56.112980 665.020020,61.913738 
	C664.999390,64.246735 664.992188,66.579857 664.060852,69.008484 
	C660.070923,68.983597 656.080933,68.958710 652.029968,68.194931 
M30.999756,118.383278 
	C30.999758,119.216362 30.814207,120.103371 31.037449,120.871574 
	C31.539474,122.599091 32.244209,124.267700 32.866440,125.960289 
	C34.552132,125.173836 36.326550,124.531204 37.898956,123.561127 
	C39.522507,122.559494 40.949635,121.239479 42.959873,119.670761 
	C43.359066,123.018188 43.205902,125.889671 44.155090,128.332886 
	C44.869976,130.173004 46.820423,132.496521 48.532455,132.790512 
	C52.408176,133.456085 56.485332,133.170517 60.464432,132.962677 
	C67.241287,132.608734 67.978195,131.706711 67.995262,124.690315 
	C68.013084,117.359467 67.891800,110.025688 68.088646,102.700104 
	C68.127159,101.266830 68.992584,99.468910 70.072990,98.513748 
	C76.715416,92.641380 83.312721,86.676399 90.376045,81.339073 
	C93.966576,78.625931 96.965050,73.868584 102.999763,75.274155 
	C102.999763,81.727081 102.999763,88.042397 102.999763,94.357712 
	C102.999763,100.801796 102.999763,107.245880 102.999763,113.999763 
	C98.569893,113.999763 94.599419,113.871887 90.641777,114.042221 
	C87.731667,114.167465 84.770576,114.405365 81.954208,115.092850 
	C78.186584,116.012558 78.033051,119.683388 78.174637,122.414185 
	C78.357147,125.934418 79.787254,129.391937 80.731384,132.862503 
	C80.764091,132.982758 81.347733,132.987946 81.674660,132.988281 
	C91.002304,132.998001 100.330711,132.926056 109.657417,133.021774 
	C122.233040,133.150803 126.587112,125.304024 126.830864,114.127914 
	C127.170166,98.570587 126.494476,82.981819 125.934235,67.417999 
	C125.643997,59.354801 119.627502,54.029572 111.639717,54.002151 
	C107.641098,53.988426 103.554199,53.485867 99.669930,54.152451 
	C96.179993,54.751362 92.476158,56.040874 89.632294,58.088879 
	C82.334541,63.344326 75.462219,69.190514 67.999855,75.135101 
	C67.999855,64.752808 68.038834,55.104813 67.984619,45.457340 
	C67.954147,40.033855 65.914230,38.019974 60.686096,38.001659 
	C57.687134,37.991154 54.687248,38.045845 51.689270,37.990391 
	C44.949875,37.865746 43.585106,39.640503 43.906063,45.515820 
	C44.298031,52.691097 43.956783,52.360115 36.969173,53.190899 
	C34.569530,53.476204 30.737621,55.760052 30.515608,57.506573 
	C29.989923,61.641933 31.199865,66.007797 31.836514,70.261253 
	C31.884586,70.582413 32.929565,70.872086 33.544159,70.970802 
	C36.577362,71.457977 39.621689,71.875870 43.992161,72.511711 
	C43.992161,78.690125 44.312618,85.073418 43.811409,91.391533 
	C43.644955,93.489822 41.529659,95.552971 40.019947,97.398773 
	C37.399937,100.602036 33.776180,103.247688 32.049847,106.837265 
	C30.605152,109.841232 31.269379,113.859444 30.999756,118.383278 
M239.973221,102.876617 
	C239.648758,105.109711 238.876755,107.387039 239.092209,109.566765 
	C239.552582,114.224319 237.141159,115.190666 233.273087,115.013390 
	C225.029526,114.635574 216.779678,114.039436 208.538055,114.118950 
	C204.159790,114.161186 202.853333,112.935104 202.899612,108.504227 
	C203.120544,87.349861 203.007950,66.191933 202.994186,45.035282 
	C202.990814,39.828262 201.144730,38.031418 195.883636,38.002178 
	C193.384888,37.988293 190.886017,37.999130 188.387192,37.999916 
	C180.545227,38.002384 179.007355,39.541782 179.003448,47.512375 
	C178.992844,69.168816 178.908020,90.826019 179.089508,112.480934 
	C179.120010,116.121056 180.048630,119.833008 181.066467,123.366524 
	C182.520798,128.415268 186.295029,131.635056 191.205734,132.865738 
	C194.961990,133.807098 198.987915,133.912689 202.898453,133.953613 
	C215.058044,134.080826 227.220718,134.083359 239.380219,133.952133 
	C243.290802,133.909927 247.329758,133.815338 251.071274,132.834290 
	C256.787872,131.335373 261.592072,128.083969 261.932465,121.486580 
	C262.519562,110.107124 262.822144,98.705200 262.865692,87.311256 
	C262.875854,84.652153 261.139008,82.609032 257.605347,82.919670 
	C253.637894,83.268425 249.610703,83.130241 245.619598,82.963120 
	C241.631714,82.796135 239.865982,84.402008 239.950073,88.481453 
	C240.043472,93.011360 239.751984,97.549194 239.973221,102.876617 
M526.240601,43.080418 
	C525.288086,44.626656 523.333557,46.322819 523.539062,47.695820 
	C525.483398,60.691788 527.762146,73.638672 530.060120,86.579178 
	C530.260864,87.709373 531.224976,89.559052 531.935425,89.607964 
	C537.455505,89.987900 543.001038,90.130180 548.537354,90.098564 
	C552.688843,90.074867 553.339905,87.157356 552.829102,83.866226 
	C550.937927,71.680122 549.101196,59.480198 546.807678,47.368073 
	C546.487976,45.679638 543.850220,43.414017 542.079407,43.210693 
	C537.149414,42.644650 532.110901,43.023342 526.240601,43.080418 
M414.854034,55.819244 
	C414.897797,50.825546 414.893860,45.830822 415.001556,40.838505 
	C415.077942,37.299042 414.127441,34.244629 410.139099,34.066654 
	C402.845734,33.741192 399.118683,33.177010 398.085327,38.574188 
	C397.287079,42.743389 397.308075,47.079205 397.093445,51.347412 
	C396.911224,54.971806 397.387360,58.365860 401.570251,59.674778 
	C406.332886,61.165123 412.180237,59.785728 414.854034,55.819244 
z"/>
<path fill="#535353" opacity="1.000000" stroke="none" 
	d="
M600.698120,85.814285 
	C601.277100,73.286339 608.755737,69.482330 622.844666,68.996674 
	C627.714417,68.828819 629.153809,67.438156 628.949890,62.581490 
	C628.790039,58.773880 627.486450,56.701939 623.005737,56.802258 
	C616.921753,56.938477 610.818481,56.211254 604.723389,55.855373 
	C604.225525,55.826298 603.628967,55.975807 603.244019,55.754292 
	C597.904480,52.681835 600.383179,47.496555 600.112488,43.179302 
	C599.912537,39.990639 601.834167,38.013680 605.422424,38.164989 
	C607.691528,38.260677 609.973083,38.059826 612.958984,38.331306 
	C618.414734,38.782364 623.163513,39.050724 627.905457,38.959778 
	C632.252014,38.876419 636.591125,38.405266 640.933533,38.104984 
	C642.360168,38.069233 643.786865,38.033482 645.709717,38.209686 
	C646.205872,38.421642 646.619934,38.517509 646.619934,38.517509 
	C646.619934,38.517509 646.925415,38.173225 646.925415,38.173225 
	C649.854980,39.165070 652.481995,40.406815 651.514526,44.738514 
	C650.893433,51.944607 650.696960,58.669373 650.578918,65.395508 
	C650.575623,65.582947 651.411682,65.785118 651.856323,65.980423 
	C651.914185,66.718597 651.972107,67.456764 651.800171,68.804718 
	C655.290833,69.935898 659.001892,70.574905 662.740051,70.872498 
	C663.429993,70.927422 664.229736,69.601494 664.978821,68.912918 
	C664.992188,66.579857 664.999390,64.246735 665.020020,61.913738 
	C665.071350,56.112980 666.112122,55.095409 672.095825,54.980389 
	C672.429077,54.973984 672.762390,54.978493 673.095703,54.975773 
	C687.073730,54.861797 687.073730,54.861767 688.240417,67.518753 
	C690.662720,69.088783 694.227539,70.173233 694.506348,71.815536 
	C695.269104,76.308540 694.686401,81.037941 694.507263,85.668732 
	C694.491821,86.068825 693.496216,86.791847 692.997803,86.757484 
	C686.989197,86.343224 688.000732,90.585938 687.998718,94.161697 
	C687.994690,101.161072 688.007446,108.160461 687.996338,115.159821 
	C687.979553,125.807152 682.826782,131.782593 672.173035,132.941772 
	C668.179138,133.376328 664.082642,133.105972 660.049927,132.868607 
	C656.979065,132.687836 655.879517,130.598572 656.015503,127.672791 
	C656.100525,125.843628 656.193665,123.989243 655.995728,122.177582 
	C655.509766,117.729965 657.083923,115.374397 661.817383,114.791748 
	C663.054749,114.639427 664.824402,112.029663 664.907715,110.471466 
	C665.245178,104.157700 664.886230,97.810272 665.055725,91.482521 
	C665.150757,87.932007 663.652954,86.516830 660.295959,86.955803 
	C657.602905,87.307945 654.935242,87.855072 651.669312,88.768082 
	C650.741394,89.740601 650.109192,90.257454 650.103333,90.781311 
	C650.022278,98.027817 649.968323,105.276283 650.091797,112.521164 
	C650.105896,113.349274 651.230652,114.158463 651.840454,114.976410 
	C651.787476,125.475990 646.382812,132.077652 636.195923,132.860291 
	C628.699341,133.436234 621.087036,133.387955 613.588806,132.808289 
	C606.330200,132.247147 601.642273,126.553101 600.993469,119.105476 
	C600.837952,117.319939 600.382019,115.560577 600.502991,113.279366 
	C601.282471,105.551025 601.669800,98.333969 601.898376,91.111916 
	C601.923767,90.309525 601.044678,89.478508 600.585083,88.660751 
	C600.437500,88.350639 600.394104,88.026558 600.793701,87.322487 
	C600.987854,86.575745 600.842957,86.195015 600.698120,85.814285 
M628.929565,113.772171 
	C629.241211,113.408569 629.820801,113.048149 629.825073,112.680908 
	C629.917297,104.895721 630.002197,97.108986 629.896240,89.325180 
	C629.885620,88.543777 628.641479,87.779160 627.185852,86.985573 
	C625.811279,88.551636 623.372131,90.039505 623.250305,91.697563 
	C622.777039,98.141800 622.841614,104.648613 623.119446,111.114372 
	C623.242737,113.983177 624.514099,116.514526 628.929565,113.772171 
z"/>
<path fill="#FFFFFF" opacity="1.000000" stroke="none" 
	d="
M30.999756,117.905914 
	C31.269379,113.859444 30.605152,109.841232 32.049847,106.837265 
	C33.776180,103.247688 37.399937,100.602036 40.019947,97.398773 
	C41.529659,95.552971 43.644955,93.489822 43.811409,91.391533 
	C44.312618,85.073418 43.992161,78.690125 43.992161,72.511711 
	C39.621689,71.875870 36.577362,71.457977 33.544159,70.970802 
	C32.929565,70.872086 31.884586,70.582413 31.836514,70.261253 
	C31.199865,66.007797 29.989923,61.641933 30.515608,57.506573 
	C30.737621,55.760052 34.569530,53.476204 36.969173,53.190899 
	C43.956783,52.360115 44.298031,52.691097 43.906063,45.515820 
	C43.585106,39.640503 44.949875,37.865746 51.689270,37.990391 
	C54.687248,38.045845 57.687134,37.991154 60.686096,38.001659 
	C65.914230,38.019974 67.954147,40.033855 67.984619,45.457340 
	C68.038834,55.104813 67.999855,64.752808 67.999855,75.135101 
	C75.462219,69.190514 82.334541,63.344326 89.632294,58.088879 
	C92.476158,56.040874 96.179993,54.751362 99.669930,54.152451 
	C103.554199,53.485867 107.641098,53.988426 111.639717,54.002151 
	C119.627502,54.029572 125.643997,59.354801 125.934235,67.417999 
	C126.494476,82.981819 127.170166,98.570587 126.830864,114.127914 
	C126.587112,125.304024 122.233040,133.150803 109.657417,133.021774 
	C100.330711,132.926056 91.002304,132.998001 81.674660,132.988281 
	C81.347733,132.987946 80.764091,132.982758 80.731384,132.862503 
	C79.787254,129.391937 78.357147,125.934418 78.174637,122.414185 
	C78.033051,119.683388 78.186584,116.012558 81.954208,115.092850 
	C84.770576,114.405365 87.731667,114.167465 90.641777,114.042221 
	C94.599419,113.871887 98.569893,113.999763 102.999763,113.999763 
	C102.999763,107.245880 102.999763,100.801796 102.999763,94.357712 
	C102.999763,88.042397 102.999763,81.727081 102.999763,75.274155 
	C96.965050,73.868584 93.966576,78.625931 90.376045,81.339073 
	C83.312721,86.676399 76.715416,92.641380 70.072990,98.513748 
	C68.992584,99.468910 68.127159,101.266830 68.088646,102.700104 
	C67.891800,110.025688 68.013084,117.359467 67.995262,124.690315 
	C67.978195,131.706711 67.241287,132.608734 60.464432,132.962677 
	C56.485332,133.170517 52.408176,133.456085 48.532455,132.790512 
	C46.820423,132.496521 44.869976,130.173004 44.155090,128.332886 
	C43.205902,125.889671 43.359066,123.018188 42.959873,119.670761 
	C40.949635,121.239479 39.522507,122.559494 37.898956,123.561127 
	C36.326550,124.531204 34.552132,125.173836 32.866440,125.960281 
	C32.244209,124.267700 31.539474,122.599091 31.037449,120.871574 
	C30.814207,120.103371 30.999758,119.216362 30.999756,117.905914 
z"/>
<path fill="#535353" opacity="1.000000" stroke="none" 
	d="
M501.173706,77.022720 
	C497.702393,76.542702 494.231079,76.062691 490.006378,75.478500 
	C490.006378,83.368614 490.010010,90.306183 490.005310,97.243752 
	C490.000824,103.905128 490.055420,110.567467 489.960388,117.227615 
	C489.853790,124.696373 485.982239,130.379669 478.571991,131.953506 
	C473.114990,133.112503 467.310974,132.673447 461.658356,132.828842 
	C460.964478,132.847931 459.684692,132.204025 459.633484,131.757568 
	C459.117676,127.261971 458.221619,122.670883 458.771545,118.274117 
	C458.943909,116.896042 463.159424,116.022377 465.526093,114.921753 
	C465.818817,114.785606 466.122894,114.673790 466.729340,114.423988 
	C466.729340,101.963356 466.729340,89.379616 466.729340,76.807091 
	C458.207977,74.279625 457.218170,72.758118 458.015259,63.468700 
	C458.471466,58.151909 459.404541,57.387165 467.037537,56.624214 
	C467.037537,52.619438 466.988983,48.522682 467.050476,44.427574 
	C467.119507,39.830975 469.340393,38.311146 473.757080,38.698433 
	C476.976593,38.980743 480.279724,38.149960 483.553986,38.005585 
	C487.991760,37.809914 490.443359,39.637009 490.033478,44.506874 
	C489.796936,47.316845 490.239197,50.186172 489.975311,52.991093 
	C489.589844,57.088512 491.425537,58.213219 495.222412,58.056992 
	C500.769531,57.828743 506.444427,57.302784 511.863312,58.167191 
	C519.732117,59.422398 523.974060,65.300667 523.997986,73.370575 
	C524.041931,88.191887 524.052490,103.013641 523.986023,117.834808 
	C523.946045,126.750206 518.631409,132.378403 509.640686,132.923676 
	C505.455933,133.177490 501.233704,133.102081 497.043640,132.883896 
	C493.941284,132.722351 492.909302,130.563446 493.037384,127.668114 
	C493.103485,126.172493 493.033356,124.671089 493.033722,123.172295 
	C493.035492,115.989586 493.285370,115.698128 500.588226,114.659355 
	C500.861450,113.183060 501.155029,111.596695 501.874939,109.366302 
	C502.507263,98.654579 502.738373,88.587143 502.843933,78.518410 
	C502.849091,78.025749 501.755585,77.521561 501.173706,77.022720 
z"/>
<path fill="#FFFFFF" opacity="1.000000" stroke="none" 
	d="
M239.800629,102.480103 
	C239.751984,97.549194 240.043472,93.011360 239.950073,88.481453 
	C239.865982,84.402008 241.631714,82.796135 245.619598,82.963120 
	C249.610703,83.130241 253.637894,83.268425 257.605347,82.919670 
	C261.139008,82.609032 262.875854,84.652153 262.865692,87.311256 
	C262.822144,98.705200 262.519562,110.107124 261.932465,121.486580 
	C261.592072,128.083969 256.787872,131.335373 251.071274,132.834290 
	C247.329758,133.815338 243.290802,133.909927 239.380219,133.952133 
	C227.220718,134.083359 215.058044,134.080826 202.898453,133.953613 
	C198.987915,133.912689 194.961990,133.807098 191.205734,132.865738 
	C186.295029,131.635056 182.520798,128.415268 181.066467,123.366524 
	C180.048630,119.833008 179.120010,116.121056 179.089508,112.480934 
	C178.908020,90.826019 178.992844,69.168816 179.003448,47.512375 
	C179.007355,39.541782 180.545227,38.002384 188.387192,37.999916 
	C190.886017,37.999130 193.384888,37.988293 195.883636,38.002178 
	C201.144730,38.031418 202.990814,39.828262 202.994186,45.035282 
	C203.007950,66.191933 203.120544,87.349861 202.899612,108.504227 
	C202.853333,112.935104 204.159790,114.161186 208.538055,114.118950 
	C216.779678,114.039436 225.029526,114.635574 233.273087,115.013390 
	C237.141159,115.190666 239.552582,114.224319 239.092209,109.566765 
	C238.876755,107.387039 239.648758,105.109711 239.800629,102.480103 
z"/>
<path fill="#525252" opacity="1.000000" stroke="none" 
	d="
M379.516937,59.003242 
	C382.270721,60.335098 384.974945,62.655960 387.788452,62.797073 
	C394.032867,63.110271 400.335785,62.386646 406.607452,61.973385 
	C409.893127,61.756882 410.986481,63.203358 410.973480,66.383995 
	C410.904694,83.206398 411.067291,100.030022 410.951263,116.851852 
	C410.888611,125.934311 404.578644,132.607925 395.536255,132.903244 
	C378.274811,133.466949 361.002930,133.744003 343.733215,133.988144 
	C340.968384,134.027237 338.186554,133.313934 335.426117,132.865189 
	C334.824005,132.767319 333.828247,132.375412 333.777802,132.012711 
	C333.165192,127.606270 331.893829,123.076935 332.444305,118.791557 
	C332.879913,115.400246 336.667114,114.932266 340.107758,114.966202 
	C354.264191,115.105843 368.424561,114.892448 382.579865,115.080177 
	C386.657623,115.134270 388.186157,113.925629 388.109924,109.695900 
	C387.887909,97.374115 387.829346,85.040894 388.129547,72.722458 
	C388.246613,67.919083 386.421478,66.810600 381.996460,66.860100 
	C363.843170,67.063141 345.686493,66.965012 327.531067,66.972031 
	C325.865601,66.972679 324.191284,67.035522 322.536438,66.892006 
	C318.311127,66.525558 315.077026,65.224266 315.983673,59.904770 
	C316.259430,58.286720 316.143646,56.569530 315.992004,54.917488 
	C315.625885,50.927856 317.310455,48.633945 321.780365,48.521965 
	C322.954987,49.300591 323.650452,49.928402 324.348602,49.931412 
	C338.564240,49.992672 352.780426,50.018757 366.995422,49.907963 
	C367.984833,49.900249 368.965515,48.770065 369.950256,48.161858 
	C376.816589,47.758408 376.733093,47.762852 377.082947,54.338558 
	C377.160461,55.795490 378.056549,57.208874 379.021790,58.808762 
	C379.467834,58.975216 379.516937,59.003242 379.516937,59.003242 
z"/>
<path fill="#525252" opacity="1.000000" stroke="none" 
	d="
M526.677979,43.054676 
	C532.110901,43.023342 537.149414,42.644650 542.079407,43.210693 
	C543.850220,43.414017 546.487976,45.679638 546.807678,47.368073 
	C549.101196,59.480198 550.937927,71.680122 552.829102,83.866226 
	C553.339905,87.157356 552.688843,90.074867 548.537354,90.098564 
	C543.001038,90.130180 537.455505,89.987900 531.935425,89.607964 
	C531.224976,89.559052 530.260864,87.709373 530.060120,86.579178 
	C527.762146,73.638672 525.483398,60.691788 523.539062,47.695820 
	C523.333557,46.322819 525.288086,44.626656 526.677979,43.054676 
z"/>
<path fill="#515151" opacity="1.000000" stroke="none" 
	d="
M414.718262,56.232567 
	C412.180237,59.785728 406.332886,61.165123 401.570251,59.674778 
	C397.387360,58.365860 396.911224,54.971806 397.093445,51.347412 
	C397.308075,47.079205 397.287079,42.743389 398.085327,38.574188 
	C399.118683,33.177010 402.845734,33.741192 410.139099,34.066654 
	C414.127441,34.244629 415.077942,37.299042 415.001556,40.838505 
	C414.893860,45.830822 414.897797,50.825546 414.718262,56.232567 
z"/>
<path fill="#525252" opacity="1.000000" stroke="none" 
	d="
M379.969788,59.161697 
	C379.516937,59.003242 379.467834,58.975216 379.462830,58.975304 
	C379.325867,58.329391 379.193909,57.683395 379.187012,56.157379 
	C379.186615,49.836678 379.061188,44.396004 378.935760,38.955326 
	C378.672760,35.420906 381.087799,34.402515 383.852509,34.055454 
	C385.968170,33.789871 388.142944,33.968674 390.290924,33.992725 
	C394.137115,34.035789 395.973846,36.068974 395.983643,39.849453 
	C395.994812,44.146660 396.011139,48.443985 395.992401,52.741112 
	C395.967743,58.401829 391.767120,61.876389 386.096741,60.840492 
	C384.176880,60.489758 382.312439,59.835636 379.969788,59.161697 
z"/>
<path fill="#686868" opacity="1.000000" stroke="none" 
	d="
M369.487946,48.110081 
	C368.965515,48.770065 367.984833,49.900249 366.995422,49.907963 
	C352.780426,50.018757 338.564240,49.992672 324.348602,49.931412 
	C323.650452,49.928402 322.954987,49.300591 322.161163,48.587929 
	C337.717926,48.160862 353.371765,48.109581 369.487946,48.110081 
z"/>
<path fill="#595959" opacity="1.000000" stroke="none" 
	d="
M501.108154,77.485550 
	C501.755585,77.521561 502.849091,78.025749 502.843933,78.518410 
	C502.738373,88.587143 502.507263,98.654579 501.936310,109.008148 
	C501.395172,98.845467 501.218903,88.396919 501.108154,77.485550 
z"/>
<path fill="#5A5A5A" opacity="1.000000" stroke="none" 
	d="
M651.898987,114.512848 
	C651.230652,114.158463 650.105896,113.349274 650.091797,112.521164 
	C649.968323,105.276283 650.022278,98.027817 650.103333,90.781311 
	C650.109192,90.257454 650.741394,89.740601 651.464600,89.121964 
	C651.883728,97.365387 651.920593,105.707329 651.898987,114.512848 
z"/>
<path fill="#5E5E5E" opacity="1.000000" stroke="none" 
	d="
M600.384094,89.048111 
	C601.044678,89.478508 601.923767,90.309525 601.898376,91.111916 
	C601.669800,98.333969 601.282471,105.551025 600.561646,112.867203 
	C600.182068,105.121712 600.182617,97.278580 600.384094,89.048111 
z"/>
<path fill="#595959" opacity="1.000000" stroke="none" 
	d="
M651.912415,65.516388 
	C651.411682,65.785118 650.575623,65.582947 650.578918,65.395508 
	C650.696960,58.669373 650.893433,51.944607 651.461060,45.120789 
	C651.884888,51.698738 651.926636,58.375546 651.912415,65.516388 
z"/>
<path fill="#636363" opacity="1.000000" stroke="none" 
	d="
M378.628418,39.243919 
	C379.061188,44.396004 379.186615,49.836678 379.145386,55.665138 
	C378.759521,50.546116 378.540314,45.039314 378.628418,39.243919 
z"/>
<path fill="#5E5E5E" opacity="1.000000" stroke="none" 
	d="
M664.519836,68.960693 
	C664.229736,69.601494 663.429993,70.927422 662.740051,70.872498 
	C659.001892,70.574905 655.290833,69.935898 651.830688,69.174164 
	C656.080933,68.958710 660.070923,68.983597 664.519836,68.960693 
z"/>
<path fill="#666666" opacity="1.000000" stroke="none" 
	d="
M640.471924,38.063808 
	C636.591125,38.405266 632.252014,38.876419 627.905457,38.959778 
	C623.163513,39.050724 618.414734,38.782364 613.371704,38.391342 
	C622.053162,38.082245 631.031738,38.052441 640.471924,38.063808 
z"/>
<path fill="#666666" opacity="1.000000" stroke="none" 
	d="
M646.710571,38.129696 
	C646.925415,38.173225 646.619934,38.517509 646.619934,38.517509 
	C646.619934,38.517509 646.205872,38.421642 646.133057,38.278957 
	C646.060242,38.136272 646.495728,38.086166 646.710571,38.129696 
z"/>
<path fill="#5E5E5E" opacity="1.000000" stroke="none" 
	d="
M600.613464,86.172852 
	C600.842957,86.195015 600.987854,86.575745 600.911377,87.103455 
	C600.636292,87.010765 600.582581,86.771095 600.613464,86.172852 
z"/>
<path fill="#000000" opacity="1.000000" stroke="none" 
	d="
M628.165771,113.966995 
	C624.514099,116.514526 623.242737,113.983177 623.119446,111.114372 
	C622.841614,104.648613 622.777039,98.141800 623.250305,91.697563 
	C623.372131,90.039505 625.811279,88.551636 627.607178,87.463554 
	C628.074280,96.616692 628.119995,105.291840 628.165771,113.966995 
z"/>
<path fill="#5E5E5E" opacity="1.000000" stroke="none" 
	d="
M628.547668,113.869583 
	C628.119995,105.291840 628.074280,96.616692 627.999146,87.474144 
	C628.641479,87.779160 629.885620,88.543777 629.896240,89.325180 
	C630.002197,97.108986 629.917297,104.895721 629.825073,112.680908 
	C629.820801,113.048149 629.241211,113.408569 628.547668,113.869583 
z"/>
</svg>